<svg id="Layer_1" enable-background="new 0 0 495.999 495.999" height="512" viewBox="0 0 495.999 495.999" width="512" xmlns="http://www.w3.org/2000/svg"><path d="m470.309 312.908c0 22.68-22.41 32.96-51.39 50.72 0 0-51.4 77.09-167.03 77.09v-89.26c36.089-20.611 96.175-63.892 115.63-102.79 6.849-13.698 13.289-29.996 18.55-44.12 4.028-10.815-.269-3.194 21.93-36.55h32c0 58.453-.177 54.171.32 54.42 13.153 44.758 29.99 59.419 29.99 90.49z" fill="#b3cec9"/><path d="m470.019 306.018c-9.33 8.46-23.18 15.92-38.99 25.61 0 0-29.31 43.95-93.44 65.48-36.17 12.14-73.59-14.85-73.59-53 34.058-21.419 83.321-57.747 102.25-92.99 7.542-14.056 17.296-39.399 22.71-54.51l19.04-28.61h32c0 58.453-.177 54.171.32 54.42 12.21 41.55 27.44 56.98 29.7 83.6z" fill="#cae0dd"/><path d="m418.919 229.818c-.06 18.36-12.76 32.98-27.87 32.98h-32.12c11.74-16.522 22.469-45.085 30.03-66.19h2.7c15.653 0 27.325 15.569 27.26 33.21z" fill="#b3cec9"/><path d="m251.889 350.778v89.94c-109.3 0-175.54-28.7-220.45-65.75-5.59-4.621-15.716-13.434-20.21-19.12-17.947-22.809-14.16-56.772 9.79-74.98l133.14-101.17 9.07-79.3c12.17-12.152 32.909-6.629 37.4 9.92l13.19 64.05c2.42 8.89-.124 18.426-6.67 24.95-33.382 33.266-126.759 126.734-128.78 128.74 17.65 10.23 37.13 17.89 57.9 20.86 0 0 4.41-2.99 16.97-9.41 12.56-6.43 28.44-12.85 41.72-12.85 18.548 0 42.067 12.918 56.93 24.12z" fill="#f9cfac"/><path d="m239.539 342.428v85.93c-83.801 0-165.836-16.431-228.31-72.51-17.947-22.809-14.16-56.772 9.79-74.98l133.14-101.17 9.07-79.3c6.83-6.82 16.36-8.08 24.21-4.93.955 2.387-.182-2.426 14.02 66.54 2.42 8.9-.112 18.427-6.67 24.96-22.251 22.167 1.121-1.171-128.78 128.73 5.28 3.06 10.71 5.89 16.3 8.42-1.31 1.31-2.62 2.63-3.94 3.94 17.65 10.23 37.13 17.89 57.9 20.86 0 0 4.41-2.99 16.97-9.41 12.56-6.43 28.44-12.85 41.72-12.85 15.5 0 33.04 8.75 44.58 15.77z" fill="#ffe4cc"/><path d="m251.889 350.778v89.94c-109.3 0-175.54-28.7-220.45-65.75-14.122-11.673-21.789-18.972-26.72-29.82-9.89-21.72-4.131-48.747 16.3-64.28l43.36-32.94c51.877 49.125 47.226 44.573 48.21 45.92-11.636 11.636-10.123 10.111-34.22 34.21 17.65 10.23 37.13 17.89 57.9 20.86 0 0 4.41-2.99 16.97-9.41 12.56-6.43 28.44-12.85 41.72-12.85 18.531 0 42.053 12.907 56.93 24.12z" fill="#5fc68f"/><path d="m231.999 364.141c0 29.641-25.626 52.969-55.275 49.914-63.754-6.569-123.813-25.923-172.005-68.907-9.89-21.72-4.131-48.747 16.3-64.28l43.36-32.94c29.85 28.266 21.565 20.421 36.73 34.78-5.31 4.73-12.12 9.59-18.84 14.5-8.957 6.536-12.341 19.596-3.9 30.85 17.65 10.23 37.13 17.89 57.9 20.86 0 0 4.41-2.99 16.97-9.41 12.414-6.355 29.27-13.334 43.278-12.821 19.914.729 35.482 17.526 35.482 37.454z" fill="#7adbae"/><path d="m488.609 94.708c-10.56 19.2-31.39 32.28-55.39 32.28-20.269 38.15-13.917 24.412-28.36 60.25-6.84-6.58-12.51-14.32-16.67-22.9-7.698-15.919-7.82-28.154-7.82-40.87 4.414-2.151 8.828-6.253 11.44-11.51.931-1.822.543-.929 8.19-22.62 1.126-3.195 1.649-6.6 1.36-10.5 28.079-22.57 70.106-14.343 87.25 15.87z" fill="#6d6d6d"/><path d="m495.999 122.168v56.21c0 17.74-14.79 32.12-33.03 32.12-21.456 0-42.225-8-58.11-23.26 14.337-35.545 7.382-20.765 28.36-60.25 24 0 44.83-13.08 55.39-32.28 4.71 8.11 7.39 17.49 7.39 27.46z" fill="#f9cfac"/><path d="m495.999 122.168v41.5c0 17.75-14.79 32.12-33.03 32.12-19.045 0-38.268-6.356-53.75-19.36 8.956-22.231 3.73-11.288 24-49.44 24 0 44.83-13.08 55.39-32.28 4.71 8.11 7.39 17.49 7.39 27.46z" fill="#ffe4cc"/><path d="m401.439 80.978c0 5.74-1.201 7.61-8.4 28.1-1.928 5.488-5.756 10.654-11.415 13.899-20.67 12.058-46.346-7.932-38.355-30.619l6.96-19.75c4.73-13.41 19.7-20.54 33.46-15.92 11.03 3.706 17.75 13.801 17.75 24.29z" fill="#6d6d6d"/><path d="m418.919 223.958c-.06 15.12-12.76 27.16-27.87 27.16h-187.24c-15.31 0-30.23 3.77-43.52 10.8-13.61 7.2-30.46 2.48-38.24-10.8-17.424 0-30.612-16.275-26.52-33.56 2.904-12.208 13.831-20.95 26.52-20.95h269.61c15.184 0 27.327 12.379 27.26 27.35z" fill="#f9cfac"/><path d="m418.169 217.508c-2.92 12.1-14.13 21-27.12 21h-187.24c-15.31 0-30.23 3.77-43.52 10.8-13.61 7.2-30.46 2.48-38.24-10.8-12.679 0-23.619-8.756-26.52-20.95 2.904-12.208 13.831-20.95 26.52-20.95h269.61c12.691 0 23.61 8.738 26.51 20.9z" fill="#ffe4cc"/><path d="m479.639 82.988c-6.249 25.674-86.102 37.989-137.51 21.56-1.279-8.058 1.064-11.983 8.1-31.94 4.728-13.411 19.7-20.54 33.46-15.92 10.15 3.41 16.82 12.32 17.67 22.15 22.975-18.467 57.062-17.068 78.28 4.15z" fill="#797a7a"/></svg>